<svg xmlns="http://www.w3.org/2000/svg" viewBox="0 0 1200 900" font-family="'Segoe UI',system-ui,-apple-system,sans-serif">
  <defs>
    <filter id="shadow" x="-5%" y="-5%" width="115%" height="125%">
      <feDropShadow dx="0" dy="2" stdDeviation="4" flood-color="#00000060"/>
    </filter>
    <filter id="shadow-md" x="-8%" y="-5%" width="120%" height="130%">
      <feDropShadow dx="0" dy="4" stdDeviation="7" flood-color="#00000070"/>
    </filter>
    <marker id="arr-green" markerWidth="8" markerHeight="8" refX="6" refY="3" orient="auto">
      <path d="M0,0 L0,6 L8,3 z" fill="#3fb950"/>
    </marker>
    <marker id="arr-amber" markerWidth="8" markerHeight="8" refX="6" refY="3" orient="auto">
      <path d="M0,0 L0,6 L8,3 z" fill="#d29922"/>
    </marker>
    <marker id="arr-purple" markerWidth="8" markerHeight="8" refX="6" refY="3" orient="auto">
      <path d="M0,0 L0,6 L8,3 z" fill="#a371f7"/>
    </marker>
    <marker id="arr-red" markerWidth="8" markerHeight="8" refX="6" refY="3" orient="auto">
      <path d="M0,0 L0,6 L8,3 z" fill="#f85149"/>
    </marker>
    <marker id="arr-blue" markerWidth="8" markerHeight="8" refX="6" refY="3" orient="auto">
      <path d="M0,0 L0,6 L8,3 z" fill="#388bfd"/>
    </marker>
  </defs>

  <!-- Background -->
  <rect width="1200" height="900" fill="#0d1117"/>

  <!-- ══════════ HEADER ══════════ -->
  <rect x="0" y="0" width="1200" height="64" fill="#161b22" filter="url(#shadow)"/>
  <rect x="0" y="0" width="4" height="64" fill="#a371f7"/>
  <rect x="20" y="16" width="32" height="32" fill="#1f1535" rx="8"/>
  <text x="36" y="37" fill="#a371f7" font-size="16" text-anchor="middle">⚕</text>
  <text x="62" y="30" fill="#e6edf3" font-size="14" font-weight="700">kernel-medical</text>
  <text x="62" y="46" fill="#8b949e" font-size="11">production medical device architecture</text>
  <text x="560" y="26" fill="#e6edf3" font-size="17" font-weight="700" text-anchor="middle">STM32MP157 — Dual-Core Medical Acquisition</text>
  <text x="560" y="46" fill="#8b949e" font-size="11" text-anchor="middle">Cortex-M4 real-time acquisition  ·  Cortex-A7 Linux + ROS 2  ·  Zero jitter biosignal pipeline</text>
  <!-- Badges -->
  <rect x="930" y="10" width="100" height="20" fill="#1f1535" rx="10" stroke="#a371f7" stroke-width="1"/>
  <text x="980" y="24" fill="#a371f7" font-size="10" font-weight="600" text-anchor="middle">STM32MP157</text>
  <rect x="1040" y="10" width="80" height="20" fill="#12261e" rx="10" stroke="#238636" stroke-width="1"/>
  <text x="1080" y="24" fill="#3fb950" font-size="10" font-weight="600" text-anchor="middle">ROS 2 Humble</text>
  <rect x="1130" y="10" width="58" height="20" fill="#1f2d3d" rx="10" stroke="#388bfd" stroke-width="1"/>
  <text x="1159" y="24" fill="#388bfd" font-size="10" font-weight="600" text-anchor="middle">Class B</text>

  <!-- ══════════ SECURITY PANEL ══════════ -->
  <rect x="858" y="72" width="320" height="806" fill="#090d12" stroke="#21262d" stroke-width="1.5"/>
  <rect x="858" y="72" width="320" height="28" fill="#161b22"/>
  <text x="870" y="82" fill="#8b949e" font-size="9" font-weight="700" letter-spacing="1">🔒  SECURITY / RT ANALYSIS</text>
  <text x="870" y="95" fill="#484f58" font-size="8">✓ implemented  ·  ⚠ gap for production  ·  ★ your patch</text>

  <!-- Dividers -->
  <line x1="858" y1="150" x2="1178" y2="150" stroke="#21262d" stroke-width="1"/>
  <line x1="858" y1="310" x2="1178" y2="310" stroke="#21262d" stroke-width="1"/>
  <line x1="858" y1="510" x2="1178" y2="510" stroke="#21262d" stroke-width="1"/>
  <line x1="858" y1="630" x2="1178" y2="630" stroke="#21262d" stroke-width="1"/>
  <line x1="858" y1="734" x2="1178" y2="734" stroke="#21262d" stroke-width="1"/>

  <!-- ROS2 security -->
  <text x="870" y="113" fill="#3fb950" font-size="9" font-weight="700">ROS 2 LAYER</text>
  <text x="870" y="126" fill="#484f58" font-size="9">⚠  SROS2 DDS security not enabled</text>
  <text x="870" y="139" fill="#484f58" font-size="9">⚠  Topic encryption not configured</text>

  <!-- User space security -->
  <text x="870" y="163" fill="#f85149" font-size="9" font-weight="700">USER SPACE</text>
  <text x="870" y="176" fill="#3fb950" font-size="9">✓  Runs as non-root</text>
  <text x="870" y="188" fill="#3fb950" font-size="9">✓  IIO sysfs interface only</text>
  <text x="870" y="200" fill="#484f58" font-size="9">⚠  Valgrind / ASAN not in CI</text>
  <text x="870" y="212" fill="#484f58" font-size="9">⚠  seccomp not applied</text>
  <text x="870" y="224" fill="#484f58" font-size="9">⚠  SROS2 not configured</text>

  <!-- A7 kernel security -->
  <text x="870" y="237" fill="#388bfd" font-size="9" font-weight="700">A7 KERNEL (LINUX)</text>
  <text x="870" y="250" fill="#3fb950" font-size="9">✓  KASLR + SSP</text>
  <text x="870" y="262" fill="#3fb950" font-size="9">✓  remoteproc signs M4 firmware</text>
  <text x="870" y="274" fill="#484f58" font-size="9">⚠  dm-verity not enabled</text>
  <text x="870" y="286" fill="#484f58" font-size="9">⚠  KASAN / KMEMLEAK off</text>
  <text x="870" y="298" fill="#484f58" font-size="9">⚠  auditd / LSM not configured</text>

  <!-- M4 security -->
  <text x="870" y="323" fill="#a371f7" font-size="9" font-weight="700">M4 — ZEPHYR RTOS</text>
  <text x="870" y="336" fill="#3fb950" font-size="9">✓  Zephyr MPU integration</text>
  <text x="870" y="348" fill="#3fb950" font-size="9">✓  Firmware loaded by remoteproc</text>
  <text x="870" y="360" fill="#3fb950" font-size="9">✓  No network stack, no VFS</text>
  <text x="870" y="372" fill="#3fb950" font-size="9">✓  UART shell off in prod build</text>
  <text x="870" y="384" fill="#d29922" font-size="9">★  MAX30102 driver your contribution</text>
  <text x="870" y="396" fill="#484f58" font-size="9">⚠  Firmware signing needed</text>
  <text x="870" y="408" fill="#484f58" font-size="9">⚠  Zephyr stack sentinel on</text>
  <text x="870" y="422" fill="#a371f7" font-size="8.5" font-weight="600">Memory Safety (Zephyr M4)</text>
  <text x="870" y="434" fill="#3fb950" font-size="9">✓  Static pools (K_MEM_SLAB)</text>
  <text x="870" y="446" fill="#3fb950" font-size="9">✓  No heap in acquisition path</text>
  <text x="870" y="458" fill="#484f58" font-size="9">⚠  No ASAN (bare-metal target)</text>
  <text x="870" y="470" fill="#484f58" font-size="9">⚠  Zephyr twister tests in CI</text>
  <text x="870" y="484" fill="#d29922" font-size="8" font-style="italic">Zephyr: RTOS + drivers + IPC in</text>
  <text x="870" y="496" fill="#d29922" font-size="8" font-style="italic">one framework — your MAX30102 here</text>

  <!-- U-Boot security -->
  <text x="870" y="523" fill="#d29922" font-size="9" font-weight="700">U-BOOT</text>
  <text x="870" y="536" fill="#d29922" font-size="9">★  VPD patch ← your upstream work</text>
  <text x="870" y="548" fill="#3fb950" font-size="9">✓  Loads M4 firmware via remoteproc</text>
  <text x="870" y="560" fill="#3fb950" font-size="9">✓  STM32 HAB secure boot support</text>
  <text x="870" y="572" fill="#484f58" font-size="9">⚠  HAB / FIT signing not enabled</text>
  <text x="870" y="584" fill="#484f58" font-size="9">⚠  Anti-rollback not configured</text>
  <text x="870" y="598" fill="#d29922" font-size="8" font-style="italic">STM32MP157 HAB: sign bootloader,</text>
  <text x="870" y="610" fill="#d29922" font-size="8" font-style="italic">M4 firmware, A7 kernel as chain</text>
  <text x="870" y="622" fill="#d29922" font-size="8" font-style="italic">of trust from ROM to userspace</text>

  <!-- Hardware security -->
  <text x="870" y="647" fill="#3fb950" font-size="9" font-weight="700">HARDWARE</text>
  <text x="870" y="660" fill="#3fb950" font-size="9">✓  ARM TrustZone (A7 secure world)</text>
  <text x="870" y="672" fill="#3fb950" font-size="9">✓  M4 MPU enforces memory regions</text>
  <text x="870" y="684" fill="#3fb950" font-size="9">✓  Hardware TRNG (RNG1/RNG2)</text>
  <text x="870" y="696" fill="#3fb950" font-size="9">✓  BSEC (OTP fuses) for key storage</text>
  <text x="870" y="708" fill="#484f58" font-size="9">⚠  OP-TEE not provisioned</text>
  <text x="870" y="720" fill="#484f58" font-size="9">⚠  Secure element optional (STSAFE)</text>

  <!-- RT analysis -->
  <text x="870" y="747" fill="#a371f7" font-size="9" font-weight="700">REAL-TIME ANALYSIS</text>
  <text x="870" y="760" fill="#3fb950" font-size="9">✓  M4 jitter &lt; 1 µs (hardware DMA)</text>
  <text x="870" y="772" fill="#3fb950" font-size="9">✓  No OS scheduler on M4</text>
  <text x="870" y="784" fill="#3fb950" font-size="9">✓  PREEMPT_RT not needed</text>
  <text x="870" y="796" fill="#3fb950" font-size="9">✓  A7 epoll latency: &lt; 500 µs typ</text>
  <text x="870" y="808" fill="#3fb950" font-size="9">✓  Hardware watchdog on M4 + A7</text>
  <text x="870" y="822" fill="#d29922" font-size="8" font-style="italic">Compare: standard Linux ~50 ms worst</text>
  <text x="870" y="834" fill="#d29922" font-size="8" font-style="italic">PREEMPT_RT ~200 µs  ·  M4 &lt; 1 µs</text>
  <text x="870" y="846" fill="#d29922" font-size="8" font-style="italic">Use M4 for EEG ≥ 250 Hz ECG ≥ 500 Hz</text>

  <!-- ══════════════════════════════════════════
       SECTION 1 — ROS 2 TOPICS (top)
  ══════════════════════════════════════════ -->
  <rect x="24" y="80" width="826" height="62" fill="#0d1f12" rx="12" stroke="#238636" stroke-width="1.5" filter="url(#shadow)"/>
  <rect x="44" y="72" width="130" height="20" fill="#238636" rx="10"/>
  <text x="109" y="85" fill="#ffffff" font-size="10" font-weight="700" text-anchor="middle" letter-spacing="1">ROS 2 TOPICS</text>

  <rect x="38"  y="88" width="188" height="46" fill="#161b22" rx="8" stroke="#238636" stroke-width="1.2"/>
  <text x="132" y="108" fill="#3fb950" font-size="10" font-weight="700" text-anchor="middle">/biosignal/eeg</text>
  <text x="132" y="124" fill="#484f58" font-size="9" text-anchor="middle">ADS1299 · 8ch · 250Hz · 24-bit</text>

  <rect x="234" y="88" width="192" height="46" fill="#161b22" rx="8" stroke="#238636" stroke-width="1.2"/>
  <text x="330" y="108" fill="#3fb950" font-size="10" font-weight="700" text-anchor="middle">/biosignal/ecg_ppg</text>
  <text x="330" y="124" fill="#484f58" font-size="9" text-anchor="middle">MAX86150 · ECG+PPG · 100Hz</text>

  <rect x="434" y="88" width="192" height="46" fill="#161b22" rx="8" stroke="#238636" stroke-width="1.2"/>
  <text x="530" y="108" fill="#3fb950" font-size="10" font-weight="700" text-anchor="middle">/biosignal/spo2</text>
  <text x="530" y="124" fill="#484f58" font-size="9" text-anchor="middle">MAX30102 · SpO₂/HR · 100Hz</text>

  <text x="648" y="106" fill="#c9d1d9" font-size="10" font-weight="600">→ Downstream</text>
  <text x="648" y="122" fill="#484f58" font-size="9">Robot · ML · rosbag2 · rviz2</text>

  <!-- Arrow up: User → ROS2 -->
  <line x1="420" y1="162" x2="420" y2="143" stroke="#3fb950" stroke-width="2" marker-end="url(#arr-green)"/>
  <rect x="434" y="144" width="140" height="13" fill="#0d1117" rx="3"/>
  <text x="504" y="154" fill="#484f58" font-size="9" text-anchor="middle">topic published</text>

  <!-- ══════════════════════════════════════════
       SECTION 2 — USER SPACE
  ══════════════════════════════════════════ -->
  <rect x="24" y="170" width="826" height="134" fill="#1e0a0a" rx="12" stroke="#da3633" stroke-width="1.5" filter="url(#shadow)"/>
  <rect x="44" y="162" width="178" height="20" fill="#b91c1c" rx="10"/>
  <text x="133" y="175" fill="#ffffff" font-size="10" font-weight="700" text-anchor="middle" letter-spacing="1">USER SPACE</text>
  <text x="232" y="175" fill="#f85149" font-size="12" font-weight="700">ros2_iio_medical</text>
  <rect x="656" y="162" width="192" height="20" fill="#2d2000" rx="10" stroke="#d29922" stroke-width="1"/>
  <text x="752" y="175" fill="#d29922" font-size="10" font-weight="600" text-anchor="middle">★ Your open source package</text>

  <!-- iio_bridge -->
  <rect x="38" y="182" width="374" height="112" fill="#161b22" rx="10" stroke="#da3633" stroke-width="1.5" filter="url(#shadow)"/>
  <rect x="38" y="182" width="374" height="5" fill="#b91c1c" rx="10"/>
  <text x="175" y="203" fill="#f85149" font-size="12" font-weight="700" text-anchor="middle">iio_bridge</text>
  <rect x="240" y="193" width="160" height="16" fill="#2d2000" rx="8" stroke="#d29922" stroke-width="1"/>
  <text x="320" y="204" fill="#d29922" font-size="9" font-weight="600" text-anchor="middle">Polling · Prototyping</text>
  <line x1="58" y1="214" x2="398" y2="214" stroke="#2d1111" stroke-width="1"/>
  <text x="58" y="230" fill="#8b949e" font-size="10">Reads <tspan fill="#d29922" font-weight="600">in_voltageX_raw</tspan> via sysfs</text>
  <text x="58" y="246" fill="#8b949e" font-size="10">Applies scale → mV · publishes <tspan fill="#388bfd" font-weight="600">Float64MultiArray</tspan></text>
  <text x="58" y="262" fill="#484f58" font-size="9">Works unchanged on STM32MP157 A7</text>
  <text x="58" y="278" fill="#484f58" font-size="9">No code change from Orange Pi</text>

  <!-- iio_triggered_bridge -->
  <rect x="420" y="182" width="418" height="112" fill="#161b22" rx="10" stroke="#da3633" stroke-width="1.5" filter="url(#shadow)"/>
  <rect x="420" y="182" width="418" height="5" fill="#b91c1c" rx="10"/>
  <text x="629" y="203" fill="#f85149" font-size="12" font-weight="700" text-anchor="middle">iio_triggered_bridge</text>
  <rect x="718" y="193" width="108" height="16" fill="#12261e" rx="8" stroke="#238636" stroke-width="1"/>
  <text x="772" y="204" fill="#3fb950" font-size="9" font-weight="600" text-anchor="middle">Production</text>
  <line x1="440" y1="214" x2="826" y2="214" stroke="#2d1111" stroke-width="1"/>
  <text x="440" y="230" fill="#8b949e" font-size="10">epoll_wait() on /dev/iio:deviceN → read() → parse binary</text>
  <text x="440" y="246" fill="#8b949e" font-size="10">Receives M4 samples via rpmsg_iio → IIO sysfs</text>
  <rect x="440" y="254" width="84" height="15" fill="#12261e" rx="6" stroke="#238636" stroke-width="1"/>
  <text x="482" y="265" fill="#3fb950" font-size="9" font-weight="600" text-anchor="middle">✓ &lt; 1µs jitter</text>
  <rect x="532" y="254" width="102" height="15" fill="#12261e" rx="6" stroke="#238636" stroke-width="1"/>
  <text x="583" y="265" fill="#3fb950" font-size="9" font-weight="600" text-anchor="middle">✓ No missed</text>
  <rect x="642" y="254" width="120" height="15" fill="#12261e" rx="6" stroke="#238636" stroke-width="1"/>
  <text x="702" y="265" fill="#3fb950" font-size="9" font-weight="600" text-anchor="middle">✓ M4 hardware</text>
  <text x="440" y="284" fill="#484f58" font-size="9">IIO abstraction hides M4 — identical sysfs interface as any board</text>

  <!-- BOUNDARY -->
  <line x1="24" y1="316" x2="858" y2="316" stroke="#30363d" stroke-width="1.5" stroke-dasharray="10,5"/>
  <rect x="210" y="308" width="330" height="18" fill="#0d1117" rx="3"/>
  <text x="374" y="320" fill="#484f58" font-size="11" font-weight="600" text-anchor="middle" letter-spacing="2">── KERNEL / USER SPACE BOUNDARY ──</text>

  <!-- Arrow up: A7 kernel → user space -->
  <line x1="420" y1="334" x2="420" y2="318" stroke="#f85149" stroke-width="2" stroke-dasharray="4,3" marker-end="url(#arr-red)"/>
  <rect x="434" y="320" width="160" height="13" fill="#0d1117" rx="3"/>
  <text x="514" y="330" fill="#484f58" font-size="9" text-anchor="middle">epoll_wait() · sysfs read()</text>

  <!-- ══════════════════════════════════════════
       SECTION 3 — A7 KERNEL (LINUX)
  ══════════════════════════════════════════ -->
  <rect x="24" y="340" width="826" height="166" fill="#0d1f3c" rx="12" stroke="#1f6feb" stroke-width="1.5" filter="url(#shadow)"/>
  <rect x="44" y="332" width="186" height="20" fill="#1f6feb" rx="10"/>
  <text x="137" y="345" fill="#ffffff" font-size="10" font-weight="700" text-anchor="middle" letter-spacing="1">A7 CORTEX — LINUX KERNEL</text>
  <rect x="640" y="332" width="210" height="20" fill="#2d2000" rx="10" stroke="#d29922" stroke-width="1"/>
  <text x="745" y="345" fill="#d29922" font-size="10" font-weight="600" text-anchor="middle">★ Your upstream IIO drivers</text>

  <!-- IIO drivers - under review -->
  <rect x="38"  y="354" width="230" height="142" fill="#161b22" rx="10" stroke="#1f6feb" stroke-width="1.5" filter="url(#shadow)"/>
  <rect x="38"  y="354" width="230" height="5"   fill="#388bfd" rx="10"/>
  <text x="153" y="374" fill="#388bfd" font-size="11" font-weight="700" text-anchor="middle">IIO Drivers</text>
  <rect x="56"  y="380" width="104" height="16" fill="#2d2000" rx="8" stroke="#d29922" stroke-width="1"/>
  <text x="108" y="391" fill="#d29922" font-size="9" font-weight="600" text-anchor="middle">★ Your patches</text>
  <line x1="56" y1="400" x2="254" y2="400" stroke="#21262d" stroke-width="1"/>
  <text x="56" y="416" fill="#c9d1d9" font-size="9">ads1299.c (under review)</text>
  <text x="56" y="432" fill="#c9d1d9" font-size="9">max86150.c (under review)</text>
  <text x="56" y="448" fill="#3fb950" font-size="9">max30102.c (merged ✓)</text>
  <text x="56" y="464" fill="#3fb950" font-size="9">ti-ads1298.c (merged ✓)</text>
  <text x="56" y="480" fill="#484f58" font-size="8">drivers/iio/health/</text>

  <!-- remoteproc + rpmsg -->
  <rect x="278" y="354" width="268" height="142" fill="#1a0a2e" rx="10" stroke="#a371f7" stroke-width="1.5" filter="url(#shadow)"/>
  <rect x="278" y="354" width="268" height="5"   fill="#7c3aed" rx="10"/>
  <text x="412" y="374" fill="#a371f7" font-size="11" font-weight="700" text-anchor="middle">remoteproc + rpmsg_iio</text>
  <rect x="296" y="380" width="120" height="16" fill="#1f1535" rx="8" stroke="#a371f7" stroke-width="1"/>
  <text x="356" y="391" fill="#a371f7" font-size="9" font-weight="600" text-anchor="middle">STM32MP157 specific</text>
  <line x1="296" y1="400" x2="532" y2="400" stroke="#2a1a4a" stroke-width="1"/>
  <text x="296" y="416" fill="#c9d1d9" font-size="9">Loads M4 firmware at boot</text>
  <text x="296" y="432" fill="#c9d1d9" font-size="9">Receives samples via RPMsg</text>
  <text x="296" y="448" fill="#c9d1d9" font-size="9">Exposes standard IIO sysfs</text>
  <text x="296" y="464" fill="#484f58" font-size="8">/sys/bus/iio/devices/iio:device0</text>
  <text x="296" y="480" fill="#484f58" font-size="8">Same interface as any IIO driver</text>

  <!-- IIO Subsystem -->
  <rect x="556" y="354" width="282" height="142" fill="#111d2e" rx="10" stroke="#388bfd" stroke-width="1.5" filter="url(#shadow)"/>
  <text x="697" y="378" fill="#388bfd" font-size="12" font-weight="700" text-anchor="middle">Linux IIO Subsystem</text>
  <line x1="574" y1="384" x2="824" y2="384" stroke="#1f2d3d" stroke-width="1"/>
  <text x="574" y="400" fill="#c9d1d9" font-size="9">/sys/bus/iio/devices/iio:device0</text>
  <text x="574" y="416" fill="#c9d1d9" font-size="9">/dev/iio:device0 · scan_elements</text>
  <text x="574" y="432" fill="#c9d1d9" font-size="9">buffer/enable · trigger/</text>
  <text x="574" y="448" fill="#484f58" font-size="8">rpmsg_iio pushes M4 samples here</text>
  <text x="574" y="464" fill="#484f58" font-size="8">ros2_iio_medical reads as normal</text>
  <text x="574" y="480" fill="#3fb950" font-size="8">✓ Zero code change from Orange Pi</text>

  <!-- Arrow up: OpenAMP → A7 kernel -->
  <line x1="420" y1="522" x2="420" y2="508" stroke="#a371f7" stroke-width="2.5" marker-end="url(#arr-purple)"/>
  <rect x="434" y="509" width="220" height="13" fill="#0d1117" rx="3"/>
  <text x="544" y="519" fill="#a371f7" font-size="9" text-anchor="middle">OpenAMP RPMsg · mailbox interrupt</text>

  <!-- ══════════════════════════════════════════
       SECTION 4 — M4 CORTEX REAL-TIME
  ══════════════════════════════════════════ -->
  <rect x="24" y="528" width="826" height="148" fill="#150d2e" rx="12" stroke="#a371f7" stroke-width="2" filter="url(#shadow)"/>
  <rect x="44" y="520" width="242" height="20" fill="#7c3aed" rx="10"/>
  <text x="165" y="533" fill="#ffffff" font-size="10" font-weight="700" text-anchor="middle" letter-spacing="1">M4 CORTEX — ZEPHYR RTOS</text>
  <rect x="296" y="520" width="200" height="20" fill="#1f1535" rx="10" stroke="#a371f7" stroke-width="1"/>
  <text x="396" y="533" fill="#a371f7" font-size="10" font-weight="600" text-anchor="middle">Zephyr RTOS + OpenAMP</text>
  <rect x="606" y="520" width="248" height="20" fill="#1a1400" rx="10" stroke="#d29922" stroke-width="1"/>
  <text x="730" y="533" fill="#d29922" font-size="9" font-weight="600" text-anchor="middle">No OS jitter · Hardware-timed · &lt; 1µs</text>

  <!-- SPI DMA Acquisition card -->
  <rect x="38"  y="540" width="238" height="126" fill="#1a1235" rx="10" stroke="#a371f7" stroke-width="1.5" filter="url(#shadow)"/>
  <rect x="38"  y="540" width="238" height="5"   fill="#7c3aed" rx="10"/>
  <text x="157" y="560" fill="#a371f7" font-size="11" font-weight="700" text-anchor="middle">SPI / I2C + DMA</text>
  <line x1="56" y1="566" x2="262" y2="566" stroke="#2a1a4a" stroke-width="1"/>
  <text x="56" y="582" fill="#c9d1d9" font-size="9">DRDY IRQ → SPI DMA start</text>
  <text x="56" y="598" fill="#c9d1d9" font-size="9">Zero CPU during transfer</text>
  <text x="56" y="614" fill="#c9d1d9" font-size="9">DMA complete → push to SRAM</text>
  <text x="56" y="630" fill="#484f58" font-size="8">ADS1299: SPI @ 2MHz, 24-bit × 8ch</text>
  <text x="56" y="646" fill="#d29922" font-size="8">★ MAX30102: your Zephyr driver (merged)</text>
  <text x="56" y="658" fill="#3fb950" font-size="8">✓ Exact sample timing &lt; 1µs jitter</text>

  <!-- Zephyr RTOS threads card -->
  <rect x="286" y="540" width="258" height="126" fill="#1a1235" rx="10" stroke="#a371f7" stroke-width="1.5" filter="url(#shadow)"/>
  <rect x="286" y="540" width="258" height="5"   fill="#7c3aed" rx="10"/>
  <text x="415" y="560" fill="#a371f7" font-size="11" font-weight="700" text-anchor="middle">Zephyr RTOS Threads</text>
  <line x1="304" y1="566" x2="530" y2="566" stroke="#2a1a4a" stroke-width="1"/>
  <text x="304" y="582" fill="#c9d1d9" font-size="9">Thread 1: ADC acq (K_PRIO_COOP)</text>
  <text x="304" y="598" fill="#c9d1d9" font-size="9">Thread 2: RPMsg send to A7</text>
  <text x="304" y="614" fill="#c9d1d9" font-size="9">Thread 3: Watchdog kick</text>
  <text x="304" y="630" fill="#484f58" font-size="8">M4 watchdog: 5s timeout → board reset</text>
  <text x="304" y="646" fill="#484f58" font-size="8">OpenAMP/RPMsg via Zephyr IPC driver</text>
  <text x="304" y="658" fill="#3fb950" font-size="8">✓ Static memory only — no heap</text>

  <!-- RPMsg shared SRAM card -->
  <rect x="554" y="540" width="284" height="126" fill="#1a1235" rx="10" stroke="#a371f7" stroke-width="1.5" filter="url(#shadow)"/>
  <rect x="554" y="540" width="284" height="5"   fill="#7c3aed" rx="10"/>
  <text x="696" y="560" fill="#a371f7" font-size="11" font-weight="700" text-anchor="middle">OpenAMP / RPMsg Channel</text>
  <line x1="572" y1="566" x2="824" y2="566" stroke="#2a1a4a" stroke-width="1"/>
  <text x="572" y="582" fill="#c9d1d9" font-size="9">Shared SRAM (RETRAM / SYSRAM)</text>
  <text x="572" y="598" fill="#c9d1d9" font-size="9">Virtqueue ring buffer</text>
  <text x="572" y="614" fill="#c9d1d9" font-size="9">Mailbox interrupt A7 on new sample</text>
  <text x="572" y="630" fill="#484f58" font-size="8">Latency M4→A7: ~10 µs typical</text>
  <text x="572" y="646" fill="#484f58" font-size="8">meta-st-stm32mp Yocto layer</text>
  <text x="572" y="658" fill="#3fb950" font-size="8">✓ Zero-copy between cores</text>

  <!-- Arrow up: Hardware → M4 -->
  <line x1="250" y1="688" x2="250" y2="678" stroke="#3fb950" stroke-width="2" marker-end="url(#arr-purple)"/>
  <rect x="264" y="679" width="220" height="13" fill="#0d1117" rx="3"/>
  <text x="374" y="689" fill="#484f58" font-size="9" text-anchor="middle">SPI/I2C + DRDY IRQ → M4 DMA</text>

  <!-- Arrow up: U-Boot → A7 + M4 boot -->
  <line x1="630" y1="688" x2="630" y2="678" stroke="#d29922" stroke-width="1.5" stroke-dasharray="4,3" marker-end="url(#arr-amber)"/>
  <rect x="644" y="679" width="180" height="13" fill="#0d1117" rx="3"/>
  <text x="734" y="689" fill="#8b949e" font-size="9" text-anchor="middle">remoteproc loads M4 firmware</text>

  <!-- ══════════════════════════════════════════
       SECTION 5 — U-BOOT
  ══════════════════════════════════════════ -->
  <rect x="24" y="696" width="826" height="88" fill="#1a1400" rx="12" stroke="#d29922" stroke-width="1.5" filter="url(#shadow)"/>
  <rect x="44" y="688" width="76" height="20" fill="#9e6a03" rx="10"/>
  <text x="82" y="701" fill="#ffffff" font-size="10" font-weight="700" text-anchor="middle" letter-spacing="1">U-BOOT</text>
  <rect x="130" y="688" width="126" height="20" fill="#2d2000" rx="10" stroke="#d29922" stroke-width="1"/>
  <text x="193" y="701" fill="#d29922" font-size="9" font-weight="600" text-anchor="middle">boot time · runs once</text>

  <!-- U-Boot SPL -->
  <rect x="38"  y="708" width="196" height="68" fill="#161b22" rx="9" stroke="#d29922" stroke-width="1.2" filter="url(#shadow)"/>
  <rect x="38"  y="708" width="196" height="5"  fill="#9e6a03" rx="9"/>
  <text x="136" y="726" fill="#d29922" font-size="10" font-weight="700" text-anchor="middle">U-Boot / SPL</text>
  <line x1="56" y1="732" x2="220" y2="732" stroke="#2d2000" stroke-width="1"/>
  <text x="56" y="746" fill="#8b949e" font-size="9">Init DDR · clocks · eMMC/SD</text>
  <text x="56" y="760" fill="#8b949e" font-size="9">Loads A7 kernel + DTB</text>

  <!-- DTB -->
  <rect x="244" y="708" width="196" height="68" fill="#161b22" rx="9" stroke="#d29922" stroke-width="1.2" filter="url(#shadow)"/>
  <rect x="244" y="708" width="196" height="5"  fill="#9e6a03" rx="9"/>
  <text x="342" y="726" fill="#d29922" font-size="10" font-weight="700" text-anchor="middle">Device Tree Blob</text>
  <line x1="262" y1="732" x2="426" y2="732" stroke="#2d2000" stroke-width="1"/>
  <text x="262" y="746" fill="#8b949e" font-size="9">Declares SPI/I2C topology</text>
  <text x="262" y="760" fill="#8b949e" font-size="9">M4 rproc firmware path</text>

  <!-- VPD -->
  <rect x="450" y="708" width="196" height="68" fill="#161b22" rx="9" stroke="#d29922" stroke-width="1.2" filter="url(#shadow)"/>
  <rect x="450" y="708" width="196" height="5"  fill="#9e6a03" rx="9"/>
  <text x="548" y="726" fill="#d29922" font-size="10" font-weight="700" text-anchor="middle">VPD / Board EEPROM</text>
  <rect x="468" y="730" width="140" height="15" fill="#2d2000" rx="7" stroke="#d29922" stroke-width="1"/>
  <text x="538" y="740" fill="#d29922" font-size="9" font-weight="600" text-anchor="middle">★ Your upstream patch</text>
  <line x1="468" y1="748" x2="632" y2="748" stroke="#2d2000" stroke-width="1"/>
  <text x="468" y="762" fill="#8b949e" font-size="9">Serial · MAC · calibration → Linux</text>

  <!-- remoteproc firmware -->
  <rect x="656" y="708" width="192" height="68" fill="#1a1235" rx="9" stroke="#a371f7" stroke-width="1.2" filter="url(#shadow)"/>
  <rect x="656" y="708" width="192" height="5"  fill="#7c3aed" rx="9"/>
  <text x="752" y="726" fill="#a371f7" font-size="10" font-weight="700" text-anchor="middle">M4 Firmware Load</text>
  <line x1="674" y1="732" x2="834" y2="732" stroke="#2a1a4a" stroke-width="1"/>
  <text x="674" y="746" fill="#8b949e" font-size="9">remoteproc loads from rootfs</text>
  <text x="674" y="760" fill="#8b949e" font-size="9">/lib/firmware/zephyr.elf (M4)</text>

  <!-- Arrow up: Hardware → U-Boot -->
  <line x1="420" y1="794" x2="420" y2="786" stroke="#d29922" stroke-width="1.5" stroke-dasharray="4,3" marker-end="url(#arr-amber)"/>
  <rect x="434" y="787" width="180" height="13" fill="#0d1117" rx="3"/>
  <text x="524" y="797" fill="#8b949e" font-size="9" text-anchor="middle">boot · DRAM init</text>

  <!-- ══════════════════════════════════════════
       SECTION 6 — HARDWARE (bottom)
  ══════════════════════════════════════════ -->
  <rect x="24" y="802" width="826" height="76" fill="#0d1f12" rx="12" stroke="#238636" stroke-width="1.5" filter="url(#shadow)"/>
  <rect x="44" y="794" width="100" height="20" fill="#238636" rx="10"/>
  <text x="94" y="807" fill="#ffffff" font-size="10" font-weight="700" text-anchor="middle" letter-spacing="1">HARDWARE</text>

  <!-- Sensor chips -->
  <rect x="38"  y="812" width="178" height="58" fill="#161b22" rx="9" stroke="#238636" stroke-width="1.2"/>
  <text x="127" y="832" fill="#3fb950" font-size="11" font-weight="700" text-anchor="middle">TI ADS1299</text>
  <text x="127" y="848" fill="#484f58" font-size="9"  text-anchor="middle">8-ch · 24-bit EEG/ECG</text>
  <rect x="50" y="854" width="44" height="14" fill="#0d1f12" rx="6" stroke="#238636" stroke-width="1"/>
  <text x="72"  y="864" fill="#3fb950" font-size="8" font-weight="600" text-anchor="middle">SPI</text>
  <rect x="102" y="854" width="102" height="14" fill="#0d1f12" rx="6" stroke="#238636" stroke-width="1"/>
  <text x="153" y="864" fill="#d29922" font-size="8" font-weight="600" text-anchor="middle">★ driver review</text>

  <rect x="226" y="812" width="178" height="58" fill="#161b22" rx="9" stroke="#238636" stroke-width="1.2"/>
  <text x="315" y="832" fill="#3fb950" font-size="11" font-weight="700" text-anchor="middle">ADI MAX86150</text>
  <text x="315" y="848" fill="#484f58" font-size="9"  text-anchor="middle">ECG + PPG front-end</text>
  <rect x="238" y="854" width="44" height="14" fill="#0d1f12" rx="6" stroke="#238636" stroke-width="1"/>
  <text x="260" y="864" fill="#3fb950" font-size="8" font-weight="600" text-anchor="middle">I2C</text>
  <rect x="290" y="854" width="102" height="14" fill="#0d1f12" rx="6" stroke="#238636" stroke-width="1"/>
  <text x="341" y="864" fill="#d29922" font-size="8" font-weight="600" text-anchor="middle">★ driver review</text>

  <rect x="414" y="812" width="178" height="58" fill="#161b22" rx="9" stroke="#238636" stroke-width="1.2"/>
  <text x="503" y="832" fill="#3fb950" font-size="11" font-weight="700" text-anchor="middle">ADI MAX30102</text>
  <text x="503" y="848" fill="#484f58" font-size="9"  text-anchor="middle">SpO₂ / Heart-rate</text>
  <rect x="426" y="854" width="44" height="14" fill="#0d1f12" rx="6" stroke="#238636" stroke-width="1"/>
  <text x="448" y="864" fill="#3fb950" font-size="8" font-weight="600" text-anchor="middle">I2C</text>
  <rect x="478" y="854" width="102" height="14" fill="#12261e" rx="6" stroke="#238636" stroke-width="1"/>
  <text x="529" y="864" fill="#3fb950" font-size="8" font-weight="600" text-anchor="middle">✓ merged</text>

  <rect x="602" y="812" width="244" height="58" fill="#161b22" rx="9" stroke="#238636" stroke-width="1.2"/>
  <text x="724" y="832" fill="#3fb950" font-size="11" font-weight="700" text-anchor="middle">STM32MP157 SoC</text>
  <text x="724" y="848" fill="#484f58" font-size="9"  text-anchor="middle">A7 650MHz · M4 209MHz · DDR3</text>
  <rect x="614" y="854" width="66" height="14" fill="#1f1535" rx="6" stroke="#a371f7" stroke-width="1"/>
  <text x="647" y="864" fill="#a371f7" font-size="8" font-weight="600" text-anchor="middle">TrustZone</text>
  <rect x="688" y="854" width="66" height="14" fill="#1f1535" rx="6" stroke="#a371f7" stroke-width="1"/>
  <text x="721" y="864" fill="#a371f7" font-size="8" font-weight="600" text-anchor="middle">BSEC OTP</text>
  <rect x="762" y="854" width="72" height="14" fill="#1f1535" rx="6" stroke="#a371f7" stroke-width="1"/>
  <text x="798" y="864" fill="#a371f7" font-size="8" font-weight="600" text-anchor="middle">TRNG/HAB</text>

  <!-- Footer -->
  <text x="600" y="890" fill="#484f58" font-size="9" text-anchor="middle">github.com/kernel-medical/ros2_iio_medical  ·  docs/HARDWARE.md  ·  Apache-2.0  ·  Reads bottom → top</text>
</svg>
